<?xml version="1.0" encoding="utf-8" standalone="no"?>
<!DOCTYPE svg PUBLIC "-//W3C//DTD SVG 1.1//EN"
  "http://www.w3.org/Graphics/SVG/1.1/DTD/svg11.dtd">
<!-- Created with matplotlib (https://matplotlib.org/) -->
<svg height="376.590625pt" version="1.1" viewBox="0 0 986.171875 376.590625" width="986.171875pt" xmlns="http://www.w3.org/2000/svg" xmlns:xlink="http://www.w3.org/1999/xlink">
 <defs>
  <style type="text/css">
*{stroke-linecap:butt;stroke-linejoin:round;}
  </style>
 </defs>
 <g id="figure_1">
  <g id="patch_1">
   <path d="M -0 376.590625 
L 986.171875 376.590625 
L 986.171875 0 
L -0 0 
z
" style="fill:#ffffff;"/>
  </g>
  <g id="axes_1">
   <g id="patch_2">
    <path d="M 37.571875 341.278125 
L 986.171875 341.278125 
L 986.171875 15.118125 
L 37.571875 15.118125 
z
" style="fill:#ffffff;"/>
   </g>
   <g id="matplotlib.axis_1">
    <g id="xtick_1">
     <g id="line2d_1"/>
     <g id="text_1">
      <!-- 98002 -->
      <defs>
       <path d="M 10.984375 1.515625 
L 10.984375 10.5 
Q 14.703125 8.734375 18.5 7.8125 
Q 22.3125 6.890625 25.984375 6.890625 
Q 35.75 6.890625 40.890625 13.453125 
Q 46.046875 20.015625 46.78125 33.40625 
Q 43.953125 29.203125 39.59375 26.953125 
Q 35.25 24.703125 29.984375 24.703125 
Q 19.046875 24.703125 12.671875 31.3125 
Q 6.296875 37.9375 6.296875 49.421875 
Q 6.296875 60.640625 12.9375 67.421875 
Q 19.578125 74.21875 30.609375 74.21875 
Q 43.265625 74.21875 49.921875 64.515625 
Q 56.59375 54.828125 56.59375 36.375 
Q 56.59375 19.140625 48.40625 8.859375 
Q 40.234375 -1.421875 26.421875 -1.421875 
Q 22.703125 -1.421875 18.890625 -0.6875 
Q 15.09375 0.046875 10.984375 1.515625 
z
M 30.609375 32.421875 
Q 37.25 32.421875 41.125 36.953125 
Q 45.015625 41.5 45.015625 49.421875 
Q 45.015625 57.28125 41.125 61.84375 
Q 37.25 66.40625 30.609375 66.40625 
Q 23.96875 66.40625 20.09375 61.84375 
Q 16.21875 57.28125 16.21875 49.421875 
Q 16.21875 41.5 20.09375 36.953125 
Q 23.96875 32.421875 30.609375 32.421875 
z
" id="DejaVuSans-57"/>
       <path d="M 31.78125 34.625 
Q 24.75 34.625 20.71875 30.859375 
Q 16.703125 27.09375 16.703125 20.515625 
Q 16.703125 13.921875 20.71875 10.15625 
Q 24.75 6.390625 31.78125 6.390625 
Q 38.8125 6.390625 42.859375 10.171875 
Q 46.921875 13.96875 46.921875 20.515625 
Q 46.921875 27.09375 42.890625 30.859375 
Q 38.875 34.625 31.78125 34.625 
z
M 21.921875 38.8125 
Q 15.578125 40.375 12.03125 44.71875 
Q 8.5 49.078125 8.5 55.328125 
Q 8.5 64.0625 14.71875 69.140625 
Q 20.953125 74.21875 31.78125 74.21875 
Q 42.671875 74.21875 48.875 69.140625 
Q 55.078125 64.0625 55.078125 55.328125 
Q 55.078125 49.078125 51.53125 44.71875 
Q 48 40.375 41.703125 38.8125 
Q 48.828125 37.15625 52.796875 32.3125 
Q 56.78125 27.484375 56.78125 20.515625 
Q 56.78125 9.90625 50.3125 4.234375 
Q 43.84375 -1.421875 31.78125 -1.421875 
Q 19.734375 -1.421875 13.25 4.234375 
Q 6.78125 9.90625 6.78125 20.515625 
Q 6.78125 27.484375 10.78125 32.3125 
Q 14.796875 37.15625 21.921875 38.8125 
z
M 18.3125 54.390625 
Q 18.3125 48.734375 21.84375 45.5625 
Q 25.390625 42.390625 31.78125 42.390625 
Q 38.140625 42.390625 41.71875 45.5625 
Q 45.3125 48.734375 45.3125 54.390625 
Q 45.3125 60.0625 41.71875 63.234375 
Q 38.140625 66.40625 31.78125 66.40625 
Q 25.390625 66.40625 21.84375 63.234375 
Q 18.3125 60.0625 18.3125 54.390625 
z
" id="DejaVuSans-56"/>
       <path d="M 31.78125 66.40625 
Q 24.171875 66.40625 20.328125 58.90625 
Q 16.5 51.421875 16.5 36.375 
Q 16.5 21.390625 20.328125 13.890625 
Q 24.171875 6.390625 31.78125 6.390625 
Q 39.453125 6.390625 43.28125 13.890625 
Q 47.125 21.390625 47.125 36.375 
Q 47.125 51.421875 43.28125 58.90625 
Q 39.453125 66.40625 31.78125 66.40625 
z
M 31.78125 74.21875 
Q 44.046875 74.21875 50.515625 64.515625 
Q 56.984375 54.828125 56.984375 36.375 
Q 56.984375 17.96875 50.515625 8.265625 
Q 44.046875 -1.421875 31.78125 -1.421875 
Q 19.53125 -1.421875 13.0625 8.265625 
Q 6.59375 17.96875 6.59375 36.375 
Q 6.59375 54.828125 13.0625 64.515625 
Q 19.53125 74.21875 31.78125 74.21875 
z
" id="DejaVuSans-48"/>
       <path d="M 19.1875 8.296875 
L 53.609375 8.296875 
L 53.609375 0 
L 7.328125 0 
L 7.328125 8.296875 
Q 12.9375 14.109375 22.625 23.890625 
Q 32.328125 33.6875 34.8125 36.53125 
Q 39.546875 41.84375 41.421875 45.53125 
Q 43.3125 49.21875 43.3125 52.78125 
Q 43.3125 58.59375 39.234375 62.25 
Q 35.15625 65.921875 28.609375 65.921875 
Q 23.96875 65.921875 18.8125 64.3125 
Q 13.671875 62.703125 7.8125 59.421875 
L 7.8125 69.390625 
Q 13.765625 71.78125 18.9375 73 
Q 24.125 74.21875 28.421875 74.21875 
Q 39.75 74.21875 46.484375 68.546875 
Q 53.21875 62.890625 53.21875 53.421875 
Q 53.21875 48.921875 51.53125 44.890625 
Q 49.859375 40.875 45.40625 35.40625 
Q 44.1875 33.984375 37.640625 27.21875 
Q 31.109375 20.453125 19.1875 8.296875 
z
" id="DejaVuSans-50"/>
      </defs>
      <g transform="translate(88.391344 376.590625)rotate(-90)scale(0.1 -0.1)">
       <use xlink:href="#DejaVuSans-57"/>
       <use x="63.623047" xlink:href="#DejaVuSans-56"/>
       <use x="127.246094" xlink:href="#DejaVuSans-48"/>
       <use x="190.869141" xlink:href="#DejaVuSans-48"/>
       <use x="254.492188" xlink:href="#DejaVuSans-50"/>
      </g>
     </g>
    </g>
    <g id="xtick_2">
     <g id="line2d_2"/>
     <g id="text_2">
      <!-- 98168 -->
      <defs>
       <path d="M 12.40625 8.296875 
L 28.515625 8.296875 
L 28.515625 63.921875 
L 10.984375 60.40625 
L 10.984375 69.390625 
L 28.421875 72.90625 
L 38.28125 72.90625 
L 38.28125 8.296875 
L 54.390625 8.296875 
L 54.390625 0 
L 12.40625 0 
z
" id="DejaVuSans-49"/>
       <path d="M 33.015625 40.375 
Q 26.375 40.375 22.484375 35.828125 
Q 18.609375 31.296875 18.609375 23.390625 
Q 18.609375 15.53125 22.484375 10.953125 
Q 26.375 6.390625 33.015625 6.390625 
Q 39.65625 6.390625 43.53125 10.953125 
Q 47.40625 15.53125 47.40625 23.390625 
Q 47.40625 31.296875 43.53125 35.828125 
Q 39.65625 40.375 33.015625 40.375 
z
M 52.59375 71.296875 
L 52.59375 62.3125 
Q 48.875 64.0625 45.09375 64.984375 
Q 41.3125 65.921875 37.59375 65.921875 
Q 27.828125 65.921875 22.671875 59.328125 
Q 17.53125 52.734375 16.796875 39.40625 
Q 19.671875 43.65625 24.015625 45.921875 
Q 28.375 48.1875 33.59375 48.1875 
Q 44.578125 48.1875 50.953125 41.515625 
Q 57.328125 34.859375 57.328125 23.390625 
Q 57.328125 12.15625 50.6875 5.359375 
Q 44.046875 -1.421875 33.015625 -1.421875 
Q 20.359375 -1.421875 13.671875 8.265625 
Q 6.984375 17.96875 6.984375 36.375 
Q 6.984375 53.65625 15.1875 63.9375 
Q 23.390625 74.21875 37.203125 74.21875 
Q 40.921875 74.21875 44.703125 73.484375 
Q 48.484375 72.75 52.59375 71.296875 
z
" id="DejaVuSans-54"/>
      </defs>
      <g transform="translate(100.746124 376.590625)rotate(-90)scale(0.1 -0.1)">
       <use xlink:href="#DejaVuSans-57"/>
       <use x="63.623047" xlink:href="#DejaVuSans-56"/>
       <use x="127.246094" xlink:href="#DejaVuSans-49"/>
       <use x="190.869141" xlink:href="#DejaVuSans-54"/>
       <use x="254.492188" xlink:href="#DejaVuSans-56"/>
      </g>
     </g>
    </g>
    <g id="xtick_3">
     <g id="line2d_3"/>
     <g id="text_3">
      <!-- 98032 -->
      <defs>
       <path d="M 40.578125 39.3125 
Q 47.65625 37.796875 51.625 33 
Q 55.609375 28.21875 55.609375 21.1875 
Q 55.609375 10.40625 48.1875 4.484375 
Q 40.765625 -1.421875 27.09375 -1.421875 
Q 22.515625 -1.421875 17.65625 -0.515625 
Q 12.796875 0.390625 7.625 2.203125 
L 7.625 11.71875 
Q 11.71875 9.328125 16.59375 8.109375 
Q 21.484375 6.890625 26.8125 6.890625 
Q 36.078125 6.890625 40.9375 10.546875 
Q 45.796875 14.203125 45.796875 21.1875 
Q 45.796875 27.640625 41.28125 31.265625 
Q 36.765625 34.90625 28.71875 34.90625 
L 20.21875 34.90625 
L 20.21875 43.015625 
L 29.109375 43.015625 
Q 36.375 43.015625 40.234375 45.921875 
Q 44.09375 48.828125 44.09375 54.296875 
Q 44.09375 59.90625 40.109375 62.90625 
Q 36.140625 65.921875 28.71875 65.921875 
Q 24.65625 65.921875 20.015625 65.03125 
Q 15.375 64.15625 9.8125 62.3125 
L 9.8125 71.09375 
Q 15.4375 72.65625 20.34375 73.4375 
Q 25.25 74.21875 29.59375 74.21875 
Q 40.828125 74.21875 47.359375 69.109375 
Q 53.90625 64.015625 53.90625 55.328125 
Q 53.90625 49.265625 50.4375 45.09375 
Q 46.96875 40.921875 40.578125 39.3125 
z
" id="DejaVuSans-51"/>
      </defs>
      <g transform="translate(113.100904 376.590625)rotate(-90)scale(0.1 -0.1)">
       <use xlink:href="#DejaVuSans-57"/>
       <use x="63.623047" xlink:href="#DejaVuSans-56"/>
       <use x="127.246094" xlink:href="#DejaVuSans-48"/>
       <use x="190.869141" xlink:href="#DejaVuSans-51"/>
       <use x="254.492188" xlink:href="#DejaVuSans-50"/>
      </g>
     </g>
    </g>
    <g id="xtick_4">
     <g id="line2d_4"/>
     <g id="text_4">
      <!-- 98001 -->
      <g transform="translate(125.455683 376.590625)rotate(-90)scale(0.1 -0.1)">
       <use xlink:href="#DejaVuSans-57"/>
       <use x="63.623047" xlink:href="#DejaVuSans-56"/>
       <use x="127.246094" xlink:href="#DejaVuSans-48"/>
       <use x="190.869141" xlink:href="#DejaVuSans-48"/>
       <use x="254.492188" xlink:href="#DejaVuSans-49"/>
      </g>
     </g>
    </g>
    <g id="xtick_5">
     <g id="line2d_5"/>
     <g id="text_5">
      <!-- 98188 -->
      <g transform="translate(137.810463 376.590625)rotate(-90)scale(0.1 -0.1)">
       <use xlink:href="#DejaVuSans-57"/>
       <use x="63.623047" xlink:href="#DejaVuSans-56"/>
       <use x="127.246094" xlink:href="#DejaVuSans-49"/>
       <use x="190.869141" xlink:href="#DejaVuSans-56"/>
       <use x="254.492188" xlink:href="#DejaVuSans-56"/>
      </g>
     </g>
    </g>
    <g id="xtick_6">
     <g id="line2d_6"/>
     <g id="text_6">
      <!-- 98198 -->
      <g transform="translate(150.165243 376.590625)rotate(-90)scale(0.1 -0.1)">
       <use xlink:href="#DejaVuSans-57"/>
       <use x="63.623047" xlink:href="#DejaVuSans-56"/>
       <use x="127.246094" xlink:href="#DejaVuSans-49"/>
       <use x="190.869141" xlink:href="#DejaVuSans-57"/>
       <use x="254.492188" xlink:href="#DejaVuSans-56"/>
      </g>
     </g>
    </g>
    <g id="xtick_7">
     <g id="line2d_7"/>
     <g id="text_7">
      <!-- 98023 -->
      <g transform="translate(162.520023 376.590625)rotate(-90)scale(0.1 -0.1)">
       <use xlink:href="#DejaVuSans-57"/>
       <use x="63.623047" xlink:href="#DejaVuSans-56"/>
       <use x="127.246094" xlink:href="#DejaVuSans-48"/>
       <use x="190.869141" xlink:href="#DejaVuSans-50"/>
       <use x="254.492188" xlink:href="#DejaVuSans-51"/>
      </g>
     </g>
    </g>
    <g id="xtick_8">
     <g id="line2d_8"/>
     <g id="text_8">
      <!-- 98003 -->
      <g transform="translate(174.874803 376.590625)rotate(-90)scale(0.1 -0.1)">
       <use xlink:href="#DejaVuSans-57"/>
       <use x="63.623047" xlink:href="#DejaVuSans-56"/>
       <use x="127.246094" xlink:href="#DejaVuSans-48"/>
       <use x="190.869141" xlink:href="#DejaVuSans-48"/>
       <use x="254.492188" xlink:href="#DejaVuSans-51"/>
      </g>
     </g>
    </g>
    <g id="xtick_9">
     <g id="line2d_9"/>
     <g id="text_9">
      <!-- 98148 -->
      <defs>
       <path d="M 37.796875 64.3125 
L 12.890625 25.390625 
L 37.796875 25.390625 
z
M 35.203125 72.90625 
L 47.609375 72.90625 
L 47.609375 25.390625 
L 58.015625 25.390625 
L 58.015625 17.1875 
L 47.609375 17.1875 
L 47.609375 0 
L 37.796875 0 
L 37.796875 17.1875 
L 4.890625 17.1875 
L 4.890625 26.703125 
z
" id="DejaVuSans-52"/>
      </defs>
      <g transform="translate(187.229583 376.590625)rotate(-90)scale(0.1 -0.1)">
       <use xlink:href="#DejaVuSans-57"/>
       <use x="63.623047" xlink:href="#DejaVuSans-56"/>
       <use x="127.246094" xlink:href="#DejaVuSans-49"/>
       <use x="190.869141" xlink:href="#DejaVuSans-52"/>
       <use x="254.492188" xlink:href="#DejaVuSans-56"/>
      </g>
     </g>
    </g>
    <g id="xtick_10">
     <g id="line2d_10"/>
     <g id="text_10">
      <!-- 98178 -->
      <defs>
       <path d="M 8.203125 72.90625 
L 55.078125 72.90625 
L 55.078125 68.703125 
L 28.609375 0 
L 18.3125 0 
L 43.21875 64.59375 
L 8.203125 64.59375 
z
" id="DejaVuSans-55"/>
      </defs>
      <g transform="translate(199.584363 376.590625)rotate(-90)scale(0.1 -0.1)">
       <use xlink:href="#DejaVuSans-57"/>
       <use x="63.623047" xlink:href="#DejaVuSans-56"/>
       <use x="127.246094" xlink:href="#DejaVuSans-49"/>
       <use x="190.869141" xlink:href="#DejaVuSans-55"/>
       <use x="254.492188" xlink:href="#DejaVuSans-56"/>
      </g>
     </g>
    </g>
    <g id="xtick_11">
     <g id="line2d_11"/>
     <g id="text_11">
      <!-- 98022 -->
      <g transform="translate(211.939143 376.590625)rotate(-90)scale(0.1 -0.1)">
       <use xlink:href="#DejaVuSans-57"/>
       <use x="63.623047" xlink:href="#DejaVuSans-56"/>
       <use x="127.246094" xlink:href="#DejaVuSans-48"/>
       <use x="190.869141" xlink:href="#DejaVuSans-50"/>
       <use x="254.492188" xlink:href="#DejaVuSans-50"/>
      </g>
     </g>
    </g>
    <g id="xtick_12">
     <g id="line2d_12"/>
     <g id="text_12">
      <!-- 98030 -->
      <g transform="translate(224.293923 376.590625)rotate(-90)scale(0.1 -0.1)">
       <use xlink:href="#DejaVuSans-57"/>
       <use x="63.623047" xlink:href="#DejaVuSans-56"/>
       <use x="127.246094" xlink:href="#DejaVuSans-48"/>
       <use x="190.869141" xlink:href="#DejaVuSans-51"/>
       <use x="254.492188" xlink:href="#DejaVuSans-48"/>
      </g>
     </g>
    </g>
    <g id="xtick_13">
     <g id="line2d_13"/>
     <g id="text_13">
      <!-- 98031 -->
      <g transform="translate(236.648702 376.590625)rotate(-90)scale(0.1 -0.1)">
       <use xlink:href="#DejaVuSans-57"/>
       <use x="63.623047" xlink:href="#DejaVuSans-56"/>
       <use x="127.246094" xlink:href="#DejaVuSans-48"/>
       <use x="190.869141" xlink:href="#DejaVuSans-51"/>
       <use x="254.492188" xlink:href="#DejaVuSans-49"/>
      </g>
     </g>
    </g>
    <g id="xtick_14">
     <g id="line2d_14"/>
     <g id="text_14">
      <!-- 98042 -->
      <g transform="translate(249.003482 376.590625)rotate(-90)scale(0.1 -0.1)">
       <use xlink:href="#DejaVuSans-57"/>
       <use x="63.623047" xlink:href="#DejaVuSans-56"/>
       <use x="127.246094" xlink:href="#DejaVuSans-48"/>
       <use x="190.869141" xlink:href="#DejaVuSans-52"/>
       <use x="254.492188" xlink:href="#DejaVuSans-50"/>
      </g>
     </g>
    </g>
    <g id="xtick_15">
     <g id="line2d_15"/>
     <g id="text_15">
      <!-- 98055 -->
      <defs>
       <path d="M 10.796875 72.90625 
L 49.515625 72.90625 
L 49.515625 64.59375 
L 19.828125 64.59375 
L 19.828125 46.734375 
Q 21.96875 47.46875 24.109375 47.828125 
Q 26.265625 48.1875 28.421875 48.1875 
Q 40.625 48.1875 47.75 41.5 
Q 54.890625 34.8125 54.890625 23.390625 
Q 54.890625 11.625 47.5625 5.09375 
Q 40.234375 -1.421875 26.90625 -1.421875 
Q 22.3125 -1.421875 17.546875 -0.640625 
Q 12.796875 0.140625 7.71875 1.703125 
L 7.71875 11.625 
Q 12.109375 9.234375 16.796875 8.0625 
Q 21.484375 6.890625 26.703125 6.890625 
Q 35.15625 6.890625 40.078125 11.328125 
Q 45.015625 15.765625 45.015625 23.390625 
Q 45.015625 31 40.078125 35.4375 
Q 35.15625 39.890625 26.703125 39.890625 
Q 22.75 39.890625 18.8125 39.015625 
Q 14.890625 38.140625 10.796875 36.28125 
z
" id="DejaVuSans-53"/>
      </defs>
      <g transform="translate(261.358262 376.590625)rotate(-90)scale(0.1 -0.1)">
       <use xlink:href="#DejaVuSans-57"/>
       <use x="63.623047" xlink:href="#DejaVuSans-56"/>
       <use x="127.246094" xlink:href="#DejaVuSans-48"/>
       <use x="190.869141" xlink:href="#DejaVuSans-53"/>
       <use x="254.492188" xlink:href="#DejaVuSans-53"/>
      </g>
     </g>
    </g>
    <g id="xtick_16">
     <g id="line2d_16"/>
     <g id="text_16">
      <!-- 98092 -->
      <g transform="translate(273.713042 376.590625)rotate(-90)scale(0.1 -0.1)">
       <use xlink:href="#DejaVuSans-57"/>
       <use x="63.623047" xlink:href="#DejaVuSans-56"/>
       <use x="127.246094" xlink:href="#DejaVuSans-48"/>
       <use x="190.869141" xlink:href="#DejaVuSans-57"/>
       <use x="254.492188" xlink:href="#DejaVuSans-50"/>
      </g>
     </g>
    </g>
    <g id="xtick_17">
     <g id="line2d_17"/>
     <g id="text_17">
      <!-- 98146 -->
      <g transform="translate(286.067822 376.590625)rotate(-90)scale(0.1 -0.1)">
       <use xlink:href="#DejaVuSans-57"/>
       <use x="63.623047" xlink:href="#DejaVuSans-56"/>
       <use x="127.246094" xlink:href="#DejaVuSans-49"/>
       <use x="190.869141" xlink:href="#DejaVuSans-52"/>
       <use x="254.492188" xlink:href="#DejaVuSans-54"/>
      </g>
     </g>
    </g>
    <g id="xtick_18">
     <g id="line2d_18"/>
     <g id="text_18">
      <!-- 98106 -->
      <g transform="translate(298.422602 376.590625)rotate(-90)scale(0.1 -0.1)">
       <use xlink:href="#DejaVuSans-57"/>
       <use x="63.623047" xlink:href="#DejaVuSans-56"/>
       <use x="127.246094" xlink:href="#DejaVuSans-49"/>
       <use x="190.869141" xlink:href="#DejaVuSans-48"/>
       <use x="254.492188" xlink:href="#DejaVuSans-54"/>
      </g>
     </g>
    </g>
    <g id="xtick_19">
     <g id="line2d_19"/>
     <g id="text_19">
      <!-- 98058 -->
      <g transform="translate(310.777382 376.590625)rotate(-90)scale(0.1 -0.1)">
       <use xlink:href="#DejaVuSans-57"/>
       <use x="63.623047" xlink:href="#DejaVuSans-56"/>
       <use x="127.246094" xlink:href="#DejaVuSans-48"/>
       <use x="190.869141" xlink:href="#DejaVuSans-53"/>
       <use x="254.492188" xlink:href="#DejaVuSans-56"/>
      </g>
     </g>
    </g>
    <g id="xtick_20">
     <g id="line2d_20"/>
     <g id="text_20">
      <!-- 98038 -->
      <g transform="translate(323.132162 376.590625)rotate(-90)scale(0.1 -0.1)">
       <use xlink:href="#DejaVuSans-57"/>
       <use x="63.623047" xlink:href="#DejaVuSans-56"/>
       <use x="127.246094" xlink:href="#DejaVuSans-48"/>
       <use x="190.869141" xlink:href="#DejaVuSans-51"/>
       <use x="254.492188" xlink:href="#DejaVuSans-56"/>
      </g>
     </g>
    </g>
    <g id="xtick_21">
     <g id="line2d_21"/>
     <g id="text_21">
      <!-- 98108 -->
      <g transform="translate(335.486942 376.590625)rotate(-90)scale(0.1 -0.1)">
       <use xlink:href="#DejaVuSans-57"/>
       <use x="63.623047" xlink:href="#DejaVuSans-56"/>
       <use x="127.246094" xlink:href="#DejaVuSans-49"/>
       <use x="190.869141" xlink:href="#DejaVuSans-48"/>
       <use x="254.492188" xlink:href="#DejaVuSans-56"/>
      </g>
     </g>
    </g>
    <g id="xtick_22">
     <g id="line2d_22"/>
     <g id="text_22">
      <!-- 98010 -->
      <g transform="translate(347.841721 376.590625)rotate(-90)scale(0.1 -0.1)">
       <use xlink:href="#DejaVuSans-57"/>
       <use x="63.623047" xlink:href="#DejaVuSans-56"/>
       <use x="127.246094" xlink:href="#DejaVuSans-48"/>
       <use x="190.869141" xlink:href="#DejaVuSans-49"/>
       <use x="254.492188" xlink:href="#DejaVuSans-48"/>
      </g>
     </g>
    </g>
    <g id="xtick_23">
     <g id="line2d_23"/>
     <g id="text_23">
      <!-- 98118 -->
      <g transform="translate(360.196501 376.590625)rotate(-90)scale(0.1 -0.1)">
       <use xlink:href="#DejaVuSans-57"/>
       <use x="63.623047" xlink:href="#DejaVuSans-56"/>
       <use x="127.246094" xlink:href="#DejaVuSans-49"/>
       <use x="190.869141" xlink:href="#DejaVuSans-49"/>
       <use x="254.492188" xlink:href="#DejaVuSans-56"/>
      </g>
     </g>
    </g>
    <g id="xtick_24">
     <g id="line2d_24"/>
     <g id="text_24">
      <!-- 98133 -->
      <g transform="translate(372.551281 376.590625)rotate(-90)scale(0.1 -0.1)">
       <use xlink:href="#DejaVuSans-57"/>
       <use x="63.623047" xlink:href="#DejaVuSans-56"/>
       <use x="127.246094" xlink:href="#DejaVuSans-49"/>
       <use x="190.869141" xlink:href="#DejaVuSans-51"/>
       <use x="254.492188" xlink:href="#DejaVuSans-51"/>
      </g>
     </g>
    </g>
    <g id="xtick_25">
     <g id="line2d_25"/>
     <g id="text_25">
      <!-- 98155 -->
      <g transform="translate(384.906061 376.590625)rotate(-90)scale(0.1 -0.1)">
       <use xlink:href="#DejaVuSans-57"/>
       <use x="63.623047" xlink:href="#DejaVuSans-56"/>
       <use x="127.246094" xlink:href="#DejaVuSans-49"/>
       <use x="190.869141" xlink:href="#DejaVuSans-53"/>
       <use x="254.492188" xlink:href="#DejaVuSans-53"/>
      </g>
     </g>
    </g>
    <g id="xtick_26">
     <g id="line2d_26"/>
     <g id="text_26">
      <!-- 98056 -->
      <g transform="translate(397.260841 376.590625)rotate(-90)scale(0.1 -0.1)">
       <use xlink:href="#DejaVuSans-57"/>
       <use x="63.623047" xlink:href="#DejaVuSans-56"/>
       <use x="127.246094" xlink:href="#DejaVuSans-48"/>
       <use x="190.869141" xlink:href="#DejaVuSans-53"/>
       <use x="254.492188" xlink:href="#DejaVuSans-54"/>
      </g>
     </g>
    </g>
    <g id="xtick_27">
     <g id="line2d_27"/>
     <g id="text_27">
      <!-- 98166 -->
      <g transform="translate(409.615621 376.590625)rotate(-90)scale(0.1 -0.1)">
       <use xlink:href="#DejaVuSans-57"/>
       <use x="63.623047" xlink:href="#DejaVuSans-56"/>
       <use x="127.246094" xlink:href="#DejaVuSans-49"/>
       <use x="190.869141" xlink:href="#DejaVuSans-54"/>
       <use x="254.492188" xlink:href="#DejaVuSans-54"/>
      </g>
     </g>
    </g>
    <g id="xtick_28">
     <g id="line2d_28"/>
     <g id="text_28">
      <!-- 98126 -->
      <g transform="translate(421.970401 376.590625)rotate(-90)scale(0.1 -0.1)">
       <use xlink:href="#DejaVuSans-57"/>
       <use x="63.623047" xlink:href="#DejaVuSans-56"/>
       <use x="127.246094" xlink:href="#DejaVuSans-49"/>
       <use x="190.869141" xlink:href="#DejaVuSans-50"/>
       <use x="254.492188" xlink:href="#DejaVuSans-54"/>
      </g>
     </g>
    </g>
    <g id="xtick_29">
     <g id="line2d_29"/>
     <g id="text_29">
      <!-- 98019 -->
      <g transform="translate(434.325181 376.590625)rotate(-90)scale(0.1 -0.1)">
       <use xlink:href="#DejaVuSans-57"/>
       <use x="63.623047" xlink:href="#DejaVuSans-56"/>
       <use x="127.246094" xlink:href="#DejaVuSans-48"/>
       <use x="190.869141" xlink:href="#DejaVuSans-49"/>
       <use x="254.492188" xlink:href="#DejaVuSans-57"/>
      </g>
     </g>
    </g>
    <g id="xtick_30">
     <g id="line2d_30"/>
     <g id="text_30">
      <!-- 98045 -->
      <g transform="translate(446.679961 376.590625)rotate(-90)scale(0.1 -0.1)">
       <use xlink:href="#DejaVuSans-57"/>
       <use x="63.623047" xlink:href="#DejaVuSans-56"/>
       <use x="127.246094" xlink:href="#DejaVuSans-48"/>
       <use x="190.869141" xlink:href="#DejaVuSans-52"/>
       <use x="254.492188" xlink:href="#DejaVuSans-53"/>
      </g>
     </g>
    </g>
    <g id="xtick_31">
     <g id="line2d_31"/>
     <g id="text_31">
      <!-- 98014 -->
      <g transform="translate(459.03474 376.590625)rotate(-90)scale(0.1 -0.1)">
       <use xlink:href="#DejaVuSans-57"/>
       <use x="63.623047" xlink:href="#DejaVuSans-56"/>
       <use x="127.246094" xlink:href="#DejaVuSans-48"/>
       <use x="190.869141" xlink:href="#DejaVuSans-49"/>
       <use x="254.492188" xlink:href="#DejaVuSans-52"/>
      </g>
     </g>
    </g>
    <g id="xtick_32">
     <g id="line2d_32"/>
     <g id="text_32">
      <!-- 98125 -->
      <g transform="translate(471.38952 376.590625)rotate(-90)scale(0.1 -0.1)">
       <use xlink:href="#DejaVuSans-57"/>
       <use x="63.623047" xlink:href="#DejaVuSans-56"/>
       <use x="127.246094" xlink:href="#DejaVuSans-49"/>
       <use x="190.869141" xlink:href="#DejaVuSans-50"/>
       <use x="254.492188" xlink:href="#DejaVuSans-53"/>
      </g>
     </g>
    </g>
    <g id="xtick_33">
     <g id="line2d_33"/>
     <g id="text_33">
      <!-- 98059 -->
      <g transform="translate(483.7443 376.590625)rotate(-90)scale(0.1 -0.1)">
       <use xlink:href="#DejaVuSans-57"/>
       <use x="63.623047" xlink:href="#DejaVuSans-56"/>
       <use x="127.246094" xlink:href="#DejaVuSans-48"/>
       <use x="190.869141" xlink:href="#DejaVuSans-53"/>
       <use x="254.492188" xlink:href="#DejaVuSans-57"/>
      </g>
     </g>
    </g>
    <g id="xtick_34">
     <g id="line2d_34"/>
     <g id="text_34">
      <!-- 98028 -->
      <g transform="translate(496.09908 376.590625)rotate(-90)scale(0.1 -0.1)">
       <use xlink:href="#DejaVuSans-57"/>
       <use x="63.623047" xlink:href="#DejaVuSans-56"/>
       <use x="127.246094" xlink:href="#DejaVuSans-48"/>
       <use x="190.869141" xlink:href="#DejaVuSans-50"/>
       <use x="254.492188" xlink:href="#DejaVuSans-56"/>
      </g>
     </g>
    </g>
    <g id="xtick_35">
     <g id="line2d_35"/>
     <g id="text_35">
      <!-- 98034 -->
      <g transform="translate(508.45386 376.590625)rotate(-90)scale(0.1 -0.1)">
       <use xlink:href="#DejaVuSans-57"/>
       <use x="63.623047" xlink:href="#DejaVuSans-56"/>
       <use x="127.246094" xlink:href="#DejaVuSans-48"/>
       <use x="190.869141" xlink:href="#DejaVuSans-51"/>
       <use x="254.492188" xlink:href="#DejaVuSans-52"/>
      </g>
     </g>
    </g>
    <g id="xtick_36">
     <g id="line2d_36"/>
     <g id="text_36">
      <!-- 98144 -->
      <g transform="translate(520.80864 376.590625)rotate(-90)scale(0.1 -0.1)">
       <use xlink:href="#DejaVuSans-57"/>
       <use x="63.623047" xlink:href="#DejaVuSans-56"/>
       <use x="127.246094" xlink:href="#DejaVuSans-49"/>
       <use x="190.869141" xlink:href="#DejaVuSans-52"/>
       <use x="254.492188" xlink:href="#DejaVuSans-52"/>
      </g>
     </g>
    </g>
    <g id="xtick_37">
     <g id="line2d_37"/>
     <g id="text_37">
      <!-- 98024 -->
      <g transform="translate(533.16342 376.590625)rotate(-90)scale(0.1 -0.1)">
       <use xlink:href="#DejaVuSans-57"/>
       <use x="63.623047" xlink:href="#DejaVuSans-56"/>
       <use x="127.246094" xlink:href="#DejaVuSans-48"/>
       <use x="190.869141" xlink:href="#DejaVuSans-50"/>
       <use x="254.492188" xlink:href="#DejaVuSans-52"/>
      </g>
     </g>
    </g>
    <g id="xtick_38">
     <g id="line2d_38"/>
     <g id="text_38">
      <!-- 98070 -->
      <g transform="translate(545.5182 376.590625)rotate(-90)scale(0.1 -0.1)">
       <use xlink:href="#DejaVuSans-57"/>
       <use x="63.623047" xlink:href="#DejaVuSans-56"/>
       <use x="127.246094" xlink:href="#DejaVuSans-48"/>
       <use x="190.869141" xlink:href="#DejaVuSans-55"/>
       <use x="254.492188" xlink:href="#DejaVuSans-48"/>
      </g>
     </g>
    </g>
    <g id="xtick_39">
     <g id="line2d_39"/>
     <g id="text_39">
      <!-- 98011 -->
      <g transform="translate(557.87298 376.590625)rotate(-90)scale(0.1 -0.1)">
       <use xlink:href="#DejaVuSans-57"/>
       <use x="63.623047" xlink:href="#DejaVuSans-56"/>
       <use x="127.246094" xlink:href="#DejaVuSans-48"/>
       <use x="190.869141" xlink:href="#DejaVuSans-49"/>
       <use x="254.492188" xlink:href="#DejaVuSans-49"/>
      </g>
     </g>
    </g>
    <g id="xtick_40">
     <g id="line2d_40"/>
     <g id="text_40">
      <!-- 98136 -->
      <g transform="translate(570.22776 376.590625)rotate(-90)scale(0.1 -0.1)">
       <use xlink:href="#DejaVuSans-57"/>
       <use x="63.623047" xlink:href="#DejaVuSans-56"/>
       <use x="127.246094" xlink:href="#DejaVuSans-49"/>
       <use x="190.869141" xlink:href="#DejaVuSans-51"/>
       <use x="254.492188" xlink:href="#DejaVuSans-54"/>
      </g>
     </g>
    </g>
    <g id="xtick_41">
     <g id="line2d_41"/>
     <g id="text_41">
      <!-- 98065 -->
      <g transform="translate(582.582539 376.590625)rotate(-90)scale(0.1 -0.1)">
       <use xlink:href="#DejaVuSans-57"/>
       <use x="63.623047" xlink:href="#DejaVuSans-56"/>
       <use x="127.246094" xlink:href="#DejaVuSans-48"/>
       <use x="190.869141" xlink:href="#DejaVuSans-54"/>
       <use x="254.492188" xlink:href="#DejaVuSans-53"/>
      </g>
     </g>
    </g>
    <g id="xtick_42">
     <g id="line2d_42"/>
     <g id="text_42">
      <!-- 98072 -->
      <g transform="translate(594.937319 376.590625)rotate(-90)scale(0.1 -0.1)">
       <use xlink:href="#DejaVuSans-57"/>
       <use x="63.623047" xlink:href="#DejaVuSans-56"/>
       <use x="127.246094" xlink:href="#DejaVuSans-48"/>
       <use x="190.869141" xlink:href="#DejaVuSans-55"/>
       <use x="254.492188" xlink:href="#DejaVuSans-50"/>
      </g>
     </g>
    </g>
    <g id="xtick_43">
     <g id="line2d_43"/>
     <g id="text_43">
      <!-- 98107 -->
      <g transform="translate(607.292099 376.590625)rotate(-90)scale(0.1 -0.1)">
       <use xlink:href="#DejaVuSans-57"/>
       <use x="63.623047" xlink:href="#DejaVuSans-56"/>
       <use x="127.246094" xlink:href="#DejaVuSans-49"/>
       <use x="190.869141" xlink:href="#DejaVuSans-48"/>
       <use x="254.492188" xlink:href="#DejaVuSans-55"/>
      </g>
     </g>
    </g>
    <g id="xtick_44">
     <g id="line2d_44"/>
     <g id="text_44">
      <!-- 98008 -->
      <g transform="translate(619.646879 376.590625)rotate(-90)scale(0.1 -0.1)">
       <use xlink:href="#DejaVuSans-57"/>
       <use x="63.623047" xlink:href="#DejaVuSans-56"/>
       <use x="127.246094" xlink:href="#DejaVuSans-48"/>
       <use x="190.869141" xlink:href="#DejaVuSans-48"/>
       <use x="254.492188" xlink:href="#DejaVuSans-56"/>
      </g>
     </g>
    </g>
    <g id="xtick_45">
     <g id="line2d_45"/>
     <g id="text_45">
      <!-- 98117 -->
      <g transform="translate(632.001659 376.590625)rotate(-90)scale(0.1 -0.1)">
       <use xlink:href="#DejaVuSans-57"/>
       <use x="63.623047" xlink:href="#DejaVuSans-56"/>
       <use x="127.246094" xlink:href="#DejaVuSans-49"/>
       <use x="190.869141" xlink:href="#DejaVuSans-49"/>
       <use x="254.492188" xlink:href="#DejaVuSans-55"/>
      </g>
     </g>
    </g>
    <g id="xtick_46">
     <g id="line2d_46"/>
     <g id="text_46">
      <!-- 98103 -->
      <g transform="translate(644.356439 376.590625)rotate(-90)scale(0.1 -0.1)">
       <use xlink:href="#DejaVuSans-57"/>
       <use x="63.623047" xlink:href="#DejaVuSans-56"/>
       <use x="127.246094" xlink:href="#DejaVuSans-49"/>
       <use x="190.869141" xlink:href="#DejaVuSans-48"/>
       <use x="254.492188" xlink:href="#DejaVuSans-51"/>
      </g>
     </g>
    </g>
    <g id="xtick_47">
     <g id="line2d_47"/>
     <g id="text_47">
      <!-- 98177 -->
      <g transform="translate(656.711219 376.590625)rotate(-90)scale(0.1 -0.1)">
       <use xlink:href="#DejaVuSans-57"/>
       <use x="63.623047" xlink:href="#DejaVuSans-56"/>
       <use x="127.246094" xlink:href="#DejaVuSans-49"/>
       <use x="190.869141" xlink:href="#DejaVuSans-55"/>
       <use x="254.492188" xlink:href="#DejaVuSans-55"/>
      </g>
     </g>
    </g>
    <g id="xtick_48">
     <g id="line2d_48"/>
     <g id="text_48">
      <!-- 98007 -->
      <g transform="translate(669.065999 376.590625)rotate(-90)scale(0.1 -0.1)">
       <use xlink:href="#DejaVuSans-57"/>
       <use x="63.623047" xlink:href="#DejaVuSans-56"/>
       <use x="127.246094" xlink:href="#DejaVuSans-48"/>
       <use x="190.869141" xlink:href="#DejaVuSans-48"/>
       <use x="254.492188" xlink:href="#DejaVuSans-55"/>
      </g>
     </g>
    </g>
    <g id="xtick_49">
     <g id="line2d_49"/>
     <g id="text_49">
      <!-- 98116 -->
      <g transform="translate(681.420779 376.590625)rotate(-90)scale(0.1 -0.1)">
       <use xlink:href="#DejaVuSans-57"/>
       <use x="63.623047" xlink:href="#DejaVuSans-56"/>
       <use x="127.246094" xlink:href="#DejaVuSans-49"/>
       <use x="190.869141" xlink:href="#DejaVuSans-49"/>
       <use x="254.492188" xlink:href="#DejaVuSans-54"/>
      </g>
     </g>
    </g>
    <g id="xtick_50">
     <g id="line2d_50"/>
     <g id="text_50">
      <!-- 98115 -->
      <g transform="translate(693.775558 376.590625)rotate(-90)scale(0.1 -0.1)">
       <use xlink:href="#DejaVuSans-57"/>
       <use x="63.623047" xlink:href="#DejaVuSans-56"/>
       <use x="127.246094" xlink:href="#DejaVuSans-49"/>
       <use x="190.869141" xlink:href="#DejaVuSans-49"/>
       <use x="254.492188" xlink:href="#DejaVuSans-53"/>
      </g>
     </g>
    </g>
    <g id="xtick_51">
     <g id="line2d_51"/>
     <g id="text_51">
      <!-- 98027 -->
      <g transform="translate(706.130338 376.590625)rotate(-90)scale(0.1 -0.1)">
       <use xlink:href="#DejaVuSans-57"/>
       <use x="63.623047" xlink:href="#DejaVuSans-56"/>
       <use x="127.246094" xlink:href="#DejaVuSans-48"/>
       <use x="190.869141" xlink:href="#DejaVuSans-50"/>
       <use x="254.492188" xlink:href="#DejaVuSans-55"/>
      </g>
     </g>
    </g>
    <g id="xtick_52">
     <g id="line2d_52"/>
     <g id="text_52">
      <!-- 98122 -->
      <g transform="translate(718.485118 376.590625)rotate(-90)scale(0.1 -0.1)">
       <use xlink:href="#DejaVuSans-57"/>
       <use x="63.623047" xlink:href="#DejaVuSans-56"/>
       <use x="127.246094" xlink:href="#DejaVuSans-49"/>
       <use x="190.869141" xlink:href="#DejaVuSans-50"/>
       <use x="254.492188" xlink:href="#DejaVuSans-50"/>
      </g>
     </g>
    </g>
    <g id="xtick_53">
     <g id="line2d_53"/>
     <g id="text_53">
      <!-- 98029 -->
      <g transform="translate(730.839898 376.590625)rotate(-90)scale(0.1 -0.1)">
       <use xlink:href="#DejaVuSans-57"/>
       <use x="63.623047" xlink:href="#DejaVuSans-56"/>
       <use x="127.246094" xlink:href="#DejaVuSans-48"/>
       <use x="190.869141" xlink:href="#DejaVuSans-50"/>
       <use x="254.492188" xlink:href="#DejaVuSans-57"/>
      </g>
     </g>
    </g>
    <g id="xtick_54">
     <g id="line2d_54"/>
     <g id="text_54">
      <!-- 98052 -->
      <g transform="translate(743.194678 376.590625)rotate(-90)scale(0.1 -0.1)">
       <use xlink:href="#DejaVuSans-57"/>
       <use x="63.623047" xlink:href="#DejaVuSans-56"/>
       <use x="127.246094" xlink:href="#DejaVuSans-48"/>
       <use x="190.869141" xlink:href="#DejaVuSans-53"/>
       <use x="254.492188" xlink:href="#DejaVuSans-50"/>
      </g>
     </g>
    </g>
    <g id="xtick_55">
     <g id="line2d_55"/>
     <g id="text_55">
      <!-- 98053 -->
      <g transform="translate(755.549458 376.590625)rotate(-90)scale(0.1 -0.1)">
       <use xlink:href="#DejaVuSans-57"/>
       <use x="63.623047" xlink:href="#DejaVuSans-56"/>
       <use x="127.246094" xlink:href="#DejaVuSans-48"/>
       <use x="190.869141" xlink:href="#DejaVuSans-53"/>
       <use x="254.492188" xlink:href="#DejaVuSans-51"/>
      </g>
     </g>
    </g>
    <g id="xtick_56">
     <g id="line2d_56"/>
     <g id="text_56">
      <!-- 98074 -->
      <g transform="translate(767.904238 376.590625)rotate(-90)scale(0.1 -0.1)">
       <use xlink:href="#DejaVuSans-57"/>
       <use x="63.623047" xlink:href="#DejaVuSans-56"/>
       <use x="127.246094" xlink:href="#DejaVuSans-48"/>
       <use x="190.869141" xlink:href="#DejaVuSans-55"/>
       <use x="254.492188" xlink:href="#DejaVuSans-52"/>
      </g>
     </g>
    </g>
    <g id="xtick_57">
     <g id="line2d_57"/>
     <g id="text_57">
      <!-- 98077 -->
      <g transform="translate(780.259018 376.590625)rotate(-90)scale(0.1 -0.1)">
       <use xlink:href="#DejaVuSans-57"/>
       <use x="63.623047" xlink:href="#DejaVuSans-56"/>
       <use x="127.246094" xlink:href="#DejaVuSans-48"/>
       <use x="190.869141" xlink:href="#DejaVuSans-55"/>
       <use x="254.492188" xlink:href="#DejaVuSans-55"/>
      </g>
     </g>
    </g>
    <g id="xtick_58">
     <g id="line2d_58"/>
     <g id="text_58">
      <!-- 98105 -->
      <g transform="translate(792.613798 376.590625)rotate(-90)scale(0.1 -0.1)">
       <use xlink:href="#DejaVuSans-57"/>
       <use x="63.623047" xlink:href="#DejaVuSans-56"/>
       <use x="127.246094" xlink:href="#DejaVuSans-49"/>
       <use x="190.869141" xlink:href="#DejaVuSans-48"/>
       <use x="254.492188" xlink:href="#DejaVuSans-53"/>
      </g>
     </g>
    </g>
    <g id="xtick_59">
     <g id="line2d_59"/>
     <g id="text_59">
      <!-- 98033 -->
      <g transform="translate(804.968577 376.590625)rotate(-90)scale(0.1 -0.1)">
       <use xlink:href="#DejaVuSans-57"/>
       <use x="63.623047" xlink:href="#DejaVuSans-56"/>
       <use x="127.246094" xlink:href="#DejaVuSans-48"/>
       <use x="190.869141" xlink:href="#DejaVuSans-51"/>
       <use x="254.492188" xlink:href="#DejaVuSans-51"/>
      </g>
     </g>
    </g>
    <g id="xtick_60">
     <g id="line2d_60"/>
     <g id="text_60">
      <!-- 98199 -->
      <g transform="translate(817.323357 376.590625)rotate(-90)scale(0.1 -0.1)">
       <use xlink:href="#DejaVuSans-57"/>
       <use x="63.623047" xlink:href="#DejaVuSans-56"/>
       <use x="127.246094" xlink:href="#DejaVuSans-49"/>
       <use x="190.869141" xlink:href="#DejaVuSans-57"/>
       <use x="254.492188" xlink:href="#DejaVuSans-57"/>
      </g>
     </g>
    </g>
    <g id="xtick_61">
     <g id="line2d_61"/>
     <g id="text_61">
      <!-- 98102 -->
      <g transform="translate(829.678137 376.590625)rotate(-90)scale(0.1 -0.1)">
       <use xlink:href="#DejaVuSans-57"/>
       <use x="63.623047" xlink:href="#DejaVuSans-56"/>
       <use x="127.246094" xlink:href="#DejaVuSans-49"/>
       <use x="190.869141" xlink:href="#DejaVuSans-48"/>
       <use x="254.492188" xlink:href="#DejaVuSans-50"/>
      </g>
     </g>
    </g>
    <g id="xtick_62">
     <g id="line2d_62"/>
     <g id="text_62">
      <!-- 98109 -->
      <g transform="translate(842.032917 376.590625)rotate(-90)scale(0.1 -0.1)">
       <use xlink:href="#DejaVuSans-57"/>
       <use x="63.623047" xlink:href="#DejaVuSans-56"/>
       <use x="127.246094" xlink:href="#DejaVuSans-49"/>
       <use x="190.869141" xlink:href="#DejaVuSans-48"/>
       <use x="254.492188" xlink:href="#DejaVuSans-57"/>
      </g>
     </g>
    </g>
    <g id="xtick_63">
     <g id="line2d_63"/>
     <g id="text_63">
      <!-- 98075 -->
      <g transform="translate(854.387697 376.590625)rotate(-90)scale(0.1 -0.1)">
       <use xlink:href="#DejaVuSans-57"/>
       <use x="63.623047" xlink:href="#DejaVuSans-56"/>
       <use x="127.246094" xlink:href="#DejaVuSans-48"/>
       <use x="190.869141" xlink:href="#DejaVuSans-55"/>
       <use x="254.492188" xlink:href="#DejaVuSans-53"/>
      </g>
     </g>
    </g>
    <g id="xtick_64">
     <g id="line2d_64"/>
     <g id="text_64">
      <!-- 98119 -->
      <g transform="translate(866.742477 376.590625)rotate(-90)scale(0.1 -0.1)">
       <use xlink:href="#DejaVuSans-57"/>
       <use x="63.623047" xlink:href="#DejaVuSans-56"/>
       <use x="127.246094" xlink:href="#DejaVuSans-49"/>
       <use x="190.869141" xlink:href="#DejaVuSans-49"/>
       <use x="254.492188" xlink:href="#DejaVuSans-57"/>
      </g>
     </g>
    </g>
    <g id="xtick_65">
     <g id="line2d_65"/>
     <g id="text_65">
      <!-- 98006 -->
      <g transform="translate(879.097257 376.590625)rotate(-90)scale(0.1 -0.1)">
       <use xlink:href="#DejaVuSans-57"/>
       <use x="63.623047" xlink:href="#DejaVuSans-56"/>
       <use x="127.246094" xlink:href="#DejaVuSans-48"/>
       <use x="190.869141" xlink:href="#DejaVuSans-48"/>
       <use x="254.492188" xlink:href="#DejaVuSans-54"/>
      </g>
     </g>
    </g>
    <g id="xtick_66">
     <g id="line2d_66"/>
     <g id="text_66">
      <!-- 98005 -->
      <g transform="translate(891.452037 376.590625)rotate(-90)scale(0.1 -0.1)">
       <use xlink:href="#DejaVuSans-57"/>
       <use x="63.623047" xlink:href="#DejaVuSans-56"/>
       <use x="127.246094" xlink:href="#DejaVuSans-48"/>
       <use x="190.869141" xlink:href="#DejaVuSans-48"/>
       <use x="254.492188" xlink:href="#DejaVuSans-53"/>
      </g>
     </g>
    </g>
    <g id="xtick_67">
     <g id="line2d_67"/>
     <g id="text_67">
      <!-- 98112 -->
      <g transform="translate(903.806817 376.590625)rotate(-90)scale(0.1 -0.1)">
       <use xlink:href="#DejaVuSans-57"/>
       <use x="63.623047" xlink:href="#DejaVuSans-56"/>
       <use x="127.246094" xlink:href="#DejaVuSans-49"/>
       <use x="190.869141" xlink:href="#DejaVuSans-49"/>
       <use x="254.492188" xlink:href="#DejaVuSans-50"/>
      </g>
     </g>
    </g>
    <g id="xtick_68">
     <g id="line2d_68"/>
     <g id="text_68">
      <!-- 98040 -->
      <g transform="translate(916.161596 376.590625)rotate(-90)scale(0.1 -0.1)">
       <use xlink:href="#DejaVuSans-57"/>
       <use x="63.623047" xlink:href="#DejaVuSans-56"/>
       <use x="127.246094" xlink:href="#DejaVuSans-48"/>
       <use x="190.869141" xlink:href="#DejaVuSans-52"/>
       <use x="254.492188" xlink:href="#DejaVuSans-48"/>
      </g>
     </g>
    </g>
    <g id="xtick_69">
     <g id="line2d_69"/>
     <g id="text_69">
      <!-- 98004 -->
      <g transform="translate(928.516376 376.590625)rotate(-90)scale(0.1 -0.1)">
       <use xlink:href="#DejaVuSans-57"/>
       <use x="63.623047" xlink:href="#DejaVuSans-56"/>
       <use x="127.246094" xlink:href="#DejaVuSans-48"/>
       <use x="190.869141" xlink:href="#DejaVuSans-48"/>
       <use x="254.492188" xlink:href="#DejaVuSans-52"/>
      </g>
     </g>
    </g>
    <g id="xtick_70">
     <g id="line2d_70"/>
     <g id="text_70">
      <!-- 98039 -->
      <g transform="translate(940.871156 376.590625)rotate(-90)scale(0.1 -0.1)">
       <use xlink:href="#DejaVuSans-57"/>
       <use x="63.623047" xlink:href="#DejaVuSans-56"/>
       <use x="127.246094" xlink:href="#DejaVuSans-48"/>
       <use x="190.869141" xlink:href="#DejaVuSans-51"/>
       <use x="254.492188" xlink:href="#DejaVuSans-57"/>
      </g>
     </g>
    </g>
   </g>
   <g id="matplotlib.axis_2">
    <g id="ytick_1">
     <g id="line2d_71">
      <path clip-path="url(#p2f979f99db)" d="M 37.571875 341.278125 
L 986.171875 341.278125 
" style="fill:none;stroke:#dcdcdc;stroke-linecap:square;stroke-width:0.8;"/>
     </g>
     <g id="line2d_72"/>
     <g id="text_71">
      <!-- $ 0.0M -->
      <defs>
       <path d="M 33.796875 -14.703125 
L 28.90625 -14.703125 
L 28.859375 0 
Q 23.734375 0.09375 18.609375 1.1875 
Q 13.484375 2.296875 8.296875 4.5 
L 8.296875 13.28125 
Q 13.28125 10.15625 18.375 8.5625 
Q 23.484375 6.984375 28.90625 6.9375 
L 28.90625 29.203125 
Q 18.109375 30.953125 13.203125 35.15625 
Q 8.296875 39.359375 8.296875 46.6875 
Q 8.296875 54.640625 13.625 59.21875 
Q 18.953125 63.8125 28.90625 64.5 
L 28.90625 75.984375 
L 33.796875 75.984375 
L 33.796875 64.65625 
Q 38.328125 64.453125 42.578125 63.6875 
Q 46.828125 62.9375 50.875 61.625 
L 50.875 53.078125 
Q 46.828125 55.125 42.546875 56.25 
Q 38.28125 57.375 33.796875 57.5625 
L 33.796875 36.71875 
Q 44.875 35.015625 50.09375 30.609375 
Q 55.328125 26.21875 55.328125 18.609375 
Q 55.328125 10.359375 49.78125 5.59375 
Q 44.234375 0.828125 33.796875 0.09375 
z
M 28.90625 37.59375 
L 28.90625 57.625 
Q 23.25 56.984375 20.265625 54.390625 
Q 17.28125 51.8125 17.28125 47.515625 
Q 17.28125 43.3125 20.03125 40.96875 
Q 22.796875 38.625 28.90625 37.59375 
z
M 33.796875 28.21875 
L 33.796875 7.078125 
Q 39.984375 7.90625 43.140625 10.59375 
Q 46.296875 13.28125 46.296875 17.671875 
Q 46.296875 21.96875 43.28125 24.5 
Q 40.28125 27.046875 33.796875 28.21875 
z
" id="DejaVuSans-36"/>
       <path id="DejaVuSans-32"/>
       <path d="M 10.6875 12.40625 
L 21 12.40625 
L 21 0 
L 10.6875 0 
z
" id="DejaVuSans-46"/>
       <path d="M 9.8125 72.90625 
L 24.515625 72.90625 
L 43.109375 23.296875 
L 61.8125 72.90625 
L 76.515625 72.90625 
L 76.515625 0 
L 66.890625 0 
L 66.890625 64.015625 
L 48.09375 14.015625 
L 38.1875 14.015625 
L 19.390625 64.015625 
L 19.390625 0 
L 9.8125 0 
z
" id="DejaVuSans-77"/>
      </defs>
      <g transform="translate(0 345.077344)scale(0.1 -0.1)">
       <use xlink:href="#DejaVuSans-36"/>
       <use x="63.623047" xlink:href="#DejaVuSans-32"/>
       <use x="95.410156" xlink:href="#DejaVuSans-48"/>
       <use x="159.033203" xlink:href="#DejaVuSans-46"/>
       <use x="190.820312" xlink:href="#DejaVuSans-48"/>
       <use x="254.443359" xlink:href="#DejaVuSans-77"/>
      </g>
     </g>
    </g>
    <g id="ytick_2">
     <g id="line2d_73">
      <path clip-path="url(#p2f979f99db)" d="M 37.571875 259.961745 
L 986.171875 259.961745 
" style="fill:none;stroke:#dcdcdc;stroke-linecap:square;stroke-width:0.8;"/>
     </g>
     <g id="line2d_74"/>
     <g id="text_72">
      <!-- $ 0.5M -->
      <g transform="translate(0 263.760964)scale(0.1 -0.1)">
       <use xlink:href="#DejaVuSans-36"/>
       <use x="63.623047" xlink:href="#DejaVuSans-32"/>
       <use x="95.410156" xlink:href="#DejaVuSans-48"/>
       <use x="159.033203" xlink:href="#DejaVuSans-46"/>
       <use x="190.820312" xlink:href="#DejaVuSans-53"/>
       <use x="254.443359" xlink:href="#DejaVuSans-77"/>
      </g>
     </g>
    </g>
    <g id="ytick_3">
     <g id="line2d_75">
      <path clip-path="url(#p2f979f99db)" d="M 37.571875 178.645365 
L 986.171875 178.645365 
" style="fill:none;stroke:#dcdcdc;stroke-linecap:square;stroke-width:0.8;"/>
     </g>
     <g id="line2d_76"/>
     <g id="text_73">
      <!-- $ 1.0M -->
      <g transform="translate(0 182.444584)scale(0.1 -0.1)">
       <use xlink:href="#DejaVuSans-36"/>
       <use x="63.623047" xlink:href="#DejaVuSans-32"/>
       <use x="95.410156" xlink:href="#DejaVuSans-49"/>
       <use x="159.033203" xlink:href="#DejaVuSans-46"/>
       <use x="190.820312" xlink:href="#DejaVuSans-48"/>
       <use x="254.443359" xlink:href="#DejaVuSans-77"/>
      </g>
     </g>
    </g>
    <g id="ytick_4">
     <g id="line2d_77">
      <path clip-path="url(#p2f979f99db)" d="M 37.571875 97.328985 
L 986.171875 97.328985 
" style="fill:none;stroke:#dcdcdc;stroke-linecap:square;stroke-width:0.8;"/>
     </g>
     <g id="line2d_78"/>
     <g id="text_74">
      <!-- $ 1.5M -->
      <g transform="translate(0 101.128204)scale(0.1 -0.1)">
       <use xlink:href="#DejaVuSans-36"/>
       <use x="63.623047" xlink:href="#DejaVuSans-32"/>
       <use x="95.410156" xlink:href="#DejaVuSans-49"/>
       <use x="159.033203" xlink:href="#DejaVuSans-46"/>
       <use x="190.820312" xlink:href="#DejaVuSans-53"/>
       <use x="254.443359" xlink:href="#DejaVuSans-77"/>
      </g>
     </g>
    </g>
   </g>
   <g id="patch_3">
    <path d="M 37.571875 341.278125 
L 986.171875 341.278125 
" style="fill:none;stroke:#000000;stroke-linecap:square;stroke-linejoin:miter;stroke-width:0.8;"/>
   </g>
   <g id="patch_4">
    <path clip-path="url(#p2f979f99db)" d="M 80.690057 341.278125 
L 90.573881 341.278125 
L 90.573881 303.059426 
L 80.690057 303.059426 
z
" style="fill:#d3d3d3;"/>
   </g>
   <g id="patch_5">
    <path clip-path="url(#p2f979f99db)" d="M 93.044837 341.278125 
L 102.928661 341.278125 
L 102.928661 302.734161 
L 93.044837 302.734161 
z
" style="fill:#d3d3d3;"/>
   </g>
   <g id="patch_6">
    <path clip-path="url(#p2f979f99db)" d="M 105.399617 341.278125 
L 115.283441 341.278125 
L 115.283441 300.619935 
L 105.399617 300.619935 
z
" style="fill:#d3d3d3;"/>
   </g>
   <g id="patch_7">
    <path clip-path="url(#p2f979f99db)" d="M 117.754396 341.278125 
L 127.63822 341.278125 
L 127.63822 298.993607 
L 117.754396 298.993607 
z
" style="fill:#d3d3d3;"/>
   </g>
   <g id="patch_8">
    <path clip-path="url(#p2f979f99db)" d="M 130.109176 341.278125 
L 139.993 341.278125 
L 139.993 298.180444 
L 130.109176 298.180444 
z
" style="fill:#d3d3d3;"/>
   </g>
   <g id="patch_9">
    <path clip-path="url(#p2f979f99db)" d="M 142.463956 341.278125 
L 152.34778 341.278125 
L 152.34778 297.895836 
L 142.463956 297.895836 
z
" style="fill:#d3d3d3;"/>
   </g>
   <g id="patch_10">
    <path clip-path="url(#p2f979f99db)" d="M 154.818736 341.278125 
L 164.70256 341.278125 
L 164.70256 297.529913 
L 154.818736 297.529913 
z
" style="fill:#d3d3d3;"/>
   </g>
   <g id="patch_11">
    <path clip-path="url(#p2f979f99db)" d="M 167.173516 341.278125 
L 177.05734 341.278125 
L 177.05734 297.448596 
L 167.173516 297.448596 
z
" style="fill:#d3d3d3;"/>
   </g>
   <g id="patch_12">
    <path clip-path="url(#p2f979f99db)" d="M 179.528296 341.278125 
L 189.41212 341.278125 
L 189.41212 295.903585 
L 179.528296 295.903585 
z
" style="fill:#d3d3d3;"/>
   </g>
   <g id="patch_13">
    <path clip-path="url(#p2f979f99db)" d="M 191.883076 341.278125 
L 201.7669 341.278125 
L 201.7669 295.822269 
L 191.883076 295.822269 
z
" style="fill:#d3d3d3;"/>
   </g>
   <g id="patch_14">
    <path clip-path="url(#p2f979f99db)" d="M 204.237856 341.278125 
L 214.12168 341.278125 
L 214.12168 295.740952 
L 204.237856 295.740952 
z
" style="fill:#d3d3d3;"/>
   </g>
   <g id="patch_15">
    <path clip-path="url(#p2f979f99db)" d="M 216.592636 341.278125 
L 226.47646 341.278125 
L 226.47646 295.253054 
L 216.592636 295.253054 
z
" style="fill:#d3d3d3;"/>
   </g>
   <g id="patch_16">
    <path clip-path="url(#p2f979f99db)" d="M 228.947416 341.278125 
L 238.831239 341.278125 
L 238.831239 294.374837 
L 228.947416 294.374837 
z
" style="fill:#d3d3d3;"/>
   </g>
   <g id="patch_17">
    <path clip-path="url(#p2f979f99db)" d="M 241.302195 341.278125 
L 251.186019 341.278125 
L 251.186019 293.789359 
L 241.302195 293.789359 
z
" style="fill:#d3d3d3;"/>
   </g>
   <g id="patch_18">
    <path clip-path="url(#p2f979f99db)" d="M 253.656975 341.278125 
L 263.540799 341.278125 
L 263.540799 292.939603 
L 253.656975 292.939603 
z
" style="fill:#d3d3d3;"/>
   </g>
   <g id="patch_19">
    <path clip-path="url(#p2f979f99db)" d="M 266.011755 341.278125 
L 275.895579 341.278125 
L 275.895579 290.897749 
L 266.011755 290.897749 
z
" style="fill:#b8b8c8;"/>
   </g>
   <g id="patch_20">
    <path clip-path="url(#p2f979f99db)" d="M 278.366535 341.278125 
L 288.250359 341.278125 
L 288.250359 290.536704 
L 278.366535 290.536704 
z
" style="fill:#b8b8c8;"/>
   </g>
   <g id="patch_21">
    <path clip-path="url(#p2f979f99db)" d="M 290.721315 341.278125 
L 300.605139 341.278125 
L 300.605139 290.048806 
L 290.721315 290.048806 
z
" style="fill:#b8b8c8;"/>
   </g>
   <g id="patch_22">
    <path clip-path="url(#p2f979f99db)" d="M 303.076095 341.278125 
L 312.959919 341.278125 
L 312.959919 286.79615 
L 303.076095 286.79615 
z
" style="fill:#b8b8c8;"/>
   </g>
   <g id="patch_23">
    <path clip-path="url(#p2f979f99db)" d="M 315.430875 341.278125 
L 325.314699 341.278125 
L 325.314699 285.535747 
L 315.430875 285.535747 
z
" style="fill:#b8b8c8;"/>
   </g>
   <g id="patch_24">
    <path clip-path="url(#p2f979f99db)" d="M 327.785655 341.278125 
L 337.669479 341.278125 
L 337.669479 285.169823 
L 327.785655 285.169823 
z
" style="fill:#b8b8c8;"/>
   </g>
   <g id="patch_25">
    <path clip-path="url(#p2f979f99db)" d="M 340.140435 341.278125 
L 350.024258 341.278125 
L 350.024258 282.730494 
L 340.140435 282.730494 
z
" style="fill:#b8b8c8;"/>
   </g>
   <g id="patch_26">
    <path clip-path="url(#p2f979f99db)" d="M 352.495214 341.278125 
L 362.379038 341.278125 
L 362.379038 281.104004 
L 352.495214 281.104004 
z
" style="fill:#b8b8c8;"/>
   </g>
   <g id="patch_27">
    <path clip-path="url(#p2f979f99db)" d="M 364.849994 341.278125 
L 374.733818 341.278125 
L 374.733818 280.29084 
L 364.849994 280.29084 
z
" style="fill:#b8b8c8;"/>
   </g>
   <g id="patch_28">
    <path clip-path="url(#p2f979f99db)" d="M 377.204774 341.278125 
L 387.088598 341.278125 
L 387.088598 279.928982 
L 377.204774 279.928982 
z
" style="fill:#b8b8c8;"/>
   </g>
   <g id="patch_29">
    <path clip-path="url(#p2f979f99db)" d="M 389.559554 341.278125 
L 399.443378 341.278125 
L 399.443378 279.477676 
L 389.559554 279.477676 
z
" style="fill:#b8b8c8;"/>
   </g>
   <g id="patch_30">
    <path clip-path="url(#p2f979f99db)" d="M 401.914334 341.278125 
L 411.798158 341.278125 
L 411.798158 277.444767 
L 401.914334 277.444767 
z
" style="fill:#b8b8c8;"/>
   </g>
   <g id="patch_31">
    <path clip-path="url(#p2f979f99db)" d="M 414.269114 341.278125 
L 424.152938 341.278125 
L 424.152938 276.780005 
L 414.269114 276.780005 
z
" style="fill:#b8b8c8;"/>
   </g>
   <g id="patch_32">
    <path clip-path="url(#p2f979f99db)" d="M 426.623894 341.278125 
L 436.507718 341.278125 
L 436.507718 276.02173 
L 426.623894 276.02173 
z
" style="fill:#9e9ebe;"/>
   </g>
   <g id="patch_33">
    <path clip-path="url(#p2f979f99db)" d="M 438.978674 341.278125 
L 448.862498 341.278125 
L 448.862498 275.452515 
L 438.978674 275.452515 
z
" style="fill:#9e9ebe;"/>
   </g>
   <g id="patch_34">
    <path clip-path="url(#p2f979f99db)" d="M 451.333454 341.278125 
L 461.217277 341.278125 
L 461.217277 273.78553 
L 451.333454 273.78553 
z
" style="fill:#9e9ebe;"/>
   </g>
   <g id="patch_35">
    <path clip-path="url(#p2f979f99db)" d="M 463.688233 341.278125 
L 473.572057 341.278125 
L 473.572057 272.159202 
L 463.688233 272.159202 
z
" style="fill:#9e9ebe;"/>
   </g>
   <g id="patch_36">
    <path clip-path="url(#p2f979f99db)" d="M 476.043013 341.278125 
L 485.926837 341.278125 
L 485.926837 270.532874 
L 476.043013 270.532874 
z
" style="fill:#9e9ebe;"/>
   </g>
   <g id="patch_37">
    <path clip-path="url(#p2f979f99db)" d="M 488.397793 341.278125 
L 498.281617 341.278125 
L 498.281617 269.313129 
L 488.397793 269.313129 
z
" style="fill:#9e9ebe;"/>
   </g>
   <g id="patch_38">
    <path clip-path="url(#p2f979f99db)" d="M 500.752573 341.278125 
L 510.636397 341.278125 
L 510.636397 268.743914 
L 500.752573 268.743914 
z
" style="fill:#9e9ebe;"/>
   </g>
   <g id="patch_39">
    <path clip-path="url(#p2f979f99db)" d="M 513.107353 341.278125 
L 522.991177 341.278125 
L 522.991177 267.686801 
L 513.107353 267.686801 
z
" style="fill:#9e9ebe;"/>
   </g>
   <g id="patch_40">
    <path clip-path="url(#p2f979f99db)" d="M 525.462133 341.278125 
L 535.345957 341.278125 
L 535.345957 265.653892 
L 525.462133 265.653892 
z
" style="fill:#9e9ebe;"/>
   </g>
   <g id="patch_41">
    <path clip-path="url(#p2f979f99db)" d="M 537.816913 341.278125 
L 547.700737 341.278125 
L 547.700737 265.450601 
L 537.816913 265.450601 
z
" style="fill:#9e9ebe;"/>
   </g>
   <g id="patch_42">
    <path clip-path="url(#p2f979f99db)" d="M 550.171693 341.278125 
L 560.055517 341.278125 
L 560.055517 264.840728 
L 550.171693 264.840728 
z
" style="fill:#9e9ebe;"/>
   </g>
   <g id="patch_43">
    <path clip-path="url(#p2f979f99db)" d="M 562.526473 341.278125 
L 572.410296 341.278125 
L 572.410296 261.596204 
L 562.526473 261.596204 
z
" style="fill:#9e9ebe;"/>
   </g>
   <g id="patch_44">
    <path clip-path="url(#p2f979f99db)" d="M 574.881252 341.278125 
L 584.765076 341.278125 
L 584.765076 259.961745 
L 574.881252 259.961745 
z
" style="fill:#8383b3;"/>
   </g>
   <g id="patch_45">
    <path clip-path="url(#p2f979f99db)" d="M 587.236032 341.278125 
L 597.119856 341.278125 
L 597.119856 257.115672 
L 587.236032 257.115672 
z
" style="fill:#8383b3;"/>
   </g>
   <g id="patch_46">
    <path clip-path="url(#p2f979f99db)" d="M 599.590812 341.278125 
L 609.474636 341.278125 
L 609.474636 255.086828 
L 599.590812 255.086828 
z
" style="fill:#8383b3;"/>
   </g>
   <g id="patch_47">
    <path clip-path="url(#p2f979f99db)" d="M 611.945592 341.278125 
L 621.829416 341.278125 
L 621.829416 252.643271 
L 611.945592 252.643271 
z
" style="fill:#8383b3;"/>
   </g>
   <g id="patch_48">
    <path clip-path="url(#p2f979f99db)" d="M 624.300372 341.278125 
L 634.184196 341.278125 
L 634.184196 252.643271 
L 624.300372 252.643271 
z
" style="fill:#8383b3;"/>
   </g>
   <g id="patch_49">
    <path clip-path="url(#p2f979f99db)" d="M 636.655152 341.278125 
L 646.538976 341.278125 
L 646.538976 251.830107 
L 636.655152 251.830107 
z
" style="fill:#8383b3;"/>
   </g>
   <g id="patch_50">
    <path clip-path="url(#p2f979f99db)" d="M 649.009932 341.278125 
L 658.893756 341.278125 
L 658.893756 250.691678 
L 649.009932 250.691678 
z
" style="fill:#8383b3;"/>
   </g>
   <g id="patch_51">
    <path clip-path="url(#p2f979f99db)" d="M 661.364712 341.278125 
L 671.248536 341.278125 
L 671.248536 250.203779 
L 661.364712 250.203779 
z
" style="fill:#8383b3;"/>
   </g>
   <g id="patch_52">
    <path clip-path="url(#p2f979f99db)" d="M 673.719492 341.278125 
L 683.603315 341.278125 
L 683.603315 249.309299 
L 673.719492 249.309299 
z
" style="fill:#8383b3;"/>
   </g>
   <g id="patch_53">
    <path clip-path="url(#p2f979f99db)" d="M 686.074271 341.278125 
L 695.958095 341.278125 
L 695.958095 248.577452 
L 686.074271 248.577452 
z
" style="fill:#8383b3;"/>
   </g>
   <g id="patch_54">
    <path clip-path="url(#p2f979f99db)" d="M 698.429051 341.278125 
L 708.312875 341.278125 
L 708.312875 248.414819 
L 698.429051 248.414819 
z
" style="fill:#8383b3;"/>
   </g>
   <g id="patch_55">
    <path clip-path="url(#p2f979f99db)" d="M 710.783831 341.278125 
L 720.667655 341.278125 
L 720.667655 247.926921 
L 710.783831 247.926921 
z
" style="fill:#8383b3;"/>
   </g>
   <g id="patch_56">
    <path clip-path="url(#p2f979f99db)" d="M 723.138611 341.278125 
L 733.022435 341.278125 
L 733.022435 247.845604 
L 723.138611 247.845604 
z
" style="fill:#8383b3;"/>
   </g>
   <g id="patch_57">
    <path clip-path="url(#p2f979f99db)" d="M 735.493391 341.278125 
L 745.377215 341.278125 
L 745.377215 241.258978 
L 735.493391 241.258978 
z
" style="fill:#6969a9;"/>
   </g>
   <g id="patch_58">
    <path clip-path="url(#p2f979f99db)" d="M 747.848171 341.278125 
L 757.731995 341.278125 
L 757.731995 238.006322 
L 747.848171 238.006322 
z
" style="fill:#6969a9;"/>
   </g>
   <g id="patch_59">
    <path clip-path="url(#p2f979f99db)" d="M 760.202951 341.278125 
L 770.086775 341.278125 
L 770.086775 236.379995 
L 760.202951 236.379995 
z
" style="fill:#6969a9;"/>
   </g>
   <g id="patch_60">
    <path clip-path="url(#p2f979f99db)" d="M 772.557731 341.278125 
L 782.441555 341.278125 
L 782.441555 235.164315 
L 772.557731 235.164315 
z
" style="fill:#6969a9;"/>
   </g>
   <g id="patch_61">
    <path clip-path="url(#p2f979f99db)" d="M 784.912511 341.278125 
L 794.796334 341.278125 
L 794.796334 231.501012 
L 784.912511 231.501012 
z
" style="fill:#6969a9;"/>
   </g>
   <g id="patch_62">
    <path clip-path="url(#p2f979f99db)" d="M 797.26729 341.278125 
L 807.151114 341.278125 
L 807.151114 231.013114 
L 797.26729 231.013114 
z
" style="fill:#6969a9;"/>
   </g>
   <g id="patch_63">
    <path clip-path="url(#p2f979f99db)" d="M 809.62207 341.278125 
L 819.505894 341.278125 
L 819.505894 229.077784 
L 809.62207 229.077784 
z
" style="fill:#6969a9;"/>
   </g>
   <g id="patch_64">
    <path clip-path="url(#p2f979f99db)" d="M 821.97685 341.278125 
L 831.860674 341.278125 
L 831.860674 225.808865 
L 821.97685 225.808865 
z
" style="fill:#4f4f9f;"/>
   </g>
   <g id="patch_65">
    <path clip-path="url(#p2f979f99db)" d="M 834.33163 341.278125 
L 844.215454 341.278125 
L 844.215454 221.580414 
L 834.33163 221.580414 
z
" style="fill:#4f4f9f;"/>
   </g>
   <g id="patch_66">
    <path clip-path="url(#p2f979f99db)" d="M 846.68641 341.278125 
L 856.570234 341.278125 
L 856.570234 220.929964 
L 846.68641 220.929964 
z
" style="fill:#4f4f9f;"/>
   </g>
   <g id="patch_67">
    <path clip-path="url(#p2f979f99db)" d="M 859.04119 341.278125 
L 868.925014 341.278125 
L 868.925014 220.120785 
L 859.04119 220.120785 
z
" style="fill:#4f4f9f;"/>
   </g>
   <g id="patch_68">
    <path clip-path="url(#p2f979f99db)" d="M 871.39597 341.278125 
L 881.279794 341.278125 
L 881.279794 217.647222 
L 871.39597 217.647222 
z
" style="fill:#4f4f9f;"/>
   </g>
   <g id="patch_69">
    <path clip-path="url(#p2f979f99db)" d="M 883.75075 341.278125 
L 893.634574 341.278125 
L 893.634574 216.786813 
L 883.75075 216.786813 
z
" style="fill:#4f4f9f;"/>
   </g>
   <g id="patch_70">
    <path clip-path="url(#p2f979f99db)" d="M 896.10553 341.278125 
L 905.989354 341.278125 
L 905.989354 192.062568 
L 896.10553 192.062568 
z
" style="fill:#343494;"/>
   </g>
   <g id="patch_71">
    <path clip-path="url(#p2f979f99db)" d="M 908.460309 341.278125 
L 918.344133 341.278125 
L 918.344133 179.66182 
L 908.460309 179.66182 
z
" style="fill:#343494;"/>
   </g>
   <g id="patch_72">
    <path clip-path="url(#p2f979f99db)" d="M 920.815089 341.278125 
L 930.698913 341.278125 
L 930.698913 154.250451 
L 920.815089 154.250451 
z
" style="fill:#1a1a8a;"/>
   </g>
   <g id="patch_73">
    <path clip-path="url(#p2f979f99db)" d="M 933.169869 341.278125 
L 943.053693 341.278125 
L 943.053693 30.649554 
L 933.169869 30.649554 
z
" style="fill:#000080;"/>
   </g>
   <g id="text_75">
    <!-- House sale price medians grouped by zipcode -->
    <defs>
     <path d="M 9.8125 72.90625 
L 19.671875 72.90625 
L 19.671875 43.015625 
L 55.515625 43.015625 
L 55.515625 72.90625 
L 65.375 72.90625 
L 65.375 0 
L 55.515625 0 
L 55.515625 34.71875 
L 19.671875 34.71875 
L 19.671875 0 
L 9.8125 0 
z
" id="DejaVuSans-72"/>
     <path d="M 30.609375 48.390625 
Q 23.390625 48.390625 19.1875 42.75 
Q 14.984375 37.109375 14.984375 27.296875 
Q 14.984375 17.484375 19.15625 11.84375 
Q 23.34375 6.203125 30.609375 6.203125 
Q 37.796875 6.203125 41.984375 11.859375 
Q 46.1875 17.53125 46.1875 27.296875 
Q 46.1875 37.015625 41.984375 42.703125 
Q 37.796875 48.390625 30.609375 48.390625 
z
M 30.609375 56 
Q 42.328125 56 49.015625 48.375 
Q 55.71875 40.765625 55.71875 27.296875 
Q 55.71875 13.875 49.015625 6.21875 
Q 42.328125 -1.421875 30.609375 -1.421875 
Q 18.84375 -1.421875 12.171875 6.21875 
Q 5.515625 13.875 5.515625 27.296875 
Q 5.515625 40.765625 12.171875 48.375 
Q 18.84375 56 30.609375 56 
z
" id="DejaVuSans-111"/>
     <path d="M 8.5 21.578125 
L 8.5 54.6875 
L 17.484375 54.6875 
L 17.484375 21.921875 
Q 17.484375 14.15625 20.5 10.265625 
Q 23.53125 6.390625 29.59375 6.390625 
Q 36.859375 6.390625 41.078125 11.03125 
Q 45.3125 15.671875 45.3125 23.6875 
L 45.3125 54.6875 
L 54.296875 54.6875 
L 54.296875 0 
L 45.3125 0 
L 45.3125 8.40625 
Q 42.046875 3.421875 37.71875 1 
Q 33.40625 -1.421875 27.6875 -1.421875 
Q 18.265625 -1.421875 13.375 4.4375 
Q 8.5 10.296875 8.5 21.578125 
z
M 31.109375 56 
z
" id="DejaVuSans-117"/>
     <path d="M 44.28125 53.078125 
L 44.28125 44.578125 
Q 40.484375 46.53125 36.375 47.5 
Q 32.28125 48.484375 27.875 48.484375 
Q 21.1875 48.484375 17.84375 46.4375 
Q 14.5 44.390625 14.5 40.28125 
Q 14.5 37.15625 16.890625 35.375 
Q 19.28125 33.59375 26.515625 31.984375 
L 29.59375 31.296875 
Q 39.15625 29.25 43.1875 25.515625 
Q 47.21875 21.78125 47.21875 15.09375 
Q 47.21875 7.46875 41.1875 3.015625 
Q 35.15625 -1.421875 24.609375 -1.421875 
Q 20.21875 -1.421875 15.453125 -0.5625 
Q 10.6875 0.296875 5.421875 2 
L 5.421875 11.28125 
Q 10.40625 8.6875 15.234375 7.390625 
Q 20.0625 6.109375 24.8125 6.109375 
Q 31.15625 6.109375 34.5625 8.28125 
Q 37.984375 10.453125 37.984375 14.40625 
Q 37.984375 18.0625 35.515625 20.015625 
Q 33.0625 21.96875 24.703125 23.78125 
L 21.578125 24.515625 
Q 13.234375 26.265625 9.515625 29.90625 
Q 5.8125 33.546875 5.8125 39.890625 
Q 5.8125 47.609375 11.28125 51.796875 
Q 16.75 56 26.8125 56 
Q 31.78125 56 36.171875 55.265625 
Q 40.578125 54.546875 44.28125 53.078125 
z
" id="DejaVuSans-115"/>
     <path d="M 56.203125 29.59375 
L 56.203125 25.203125 
L 14.890625 25.203125 
Q 15.484375 15.921875 20.484375 11.0625 
Q 25.484375 6.203125 34.421875 6.203125 
Q 39.59375 6.203125 44.453125 7.46875 
Q 49.3125 8.734375 54.109375 11.28125 
L 54.109375 2.78125 
Q 49.265625 0.734375 44.1875 -0.34375 
Q 39.109375 -1.421875 33.890625 -1.421875 
Q 20.796875 -1.421875 13.15625 6.1875 
Q 5.515625 13.8125 5.515625 26.8125 
Q 5.515625 40.234375 12.765625 48.109375 
Q 20.015625 56 32.328125 56 
Q 43.359375 56 49.78125 48.890625 
Q 56.203125 41.796875 56.203125 29.59375 
z
M 47.21875 32.234375 
Q 47.125 39.59375 43.09375 43.984375 
Q 39.0625 48.390625 32.421875 48.390625 
Q 24.90625 48.390625 20.390625 44.140625 
Q 15.875 39.890625 15.1875 32.171875 
z
" id="DejaVuSans-101"/>
     <path d="M 34.28125 27.484375 
Q 23.390625 27.484375 19.1875 25 
Q 14.984375 22.515625 14.984375 16.5 
Q 14.984375 11.71875 18.140625 8.90625 
Q 21.296875 6.109375 26.703125 6.109375 
Q 34.1875 6.109375 38.703125 11.40625 
Q 43.21875 16.703125 43.21875 25.484375 
L 43.21875 27.484375 
z
M 52.203125 31.203125 
L 52.203125 0 
L 43.21875 0 
L 43.21875 8.296875 
Q 40.140625 3.328125 35.546875 0.953125 
Q 30.953125 -1.421875 24.3125 -1.421875 
Q 15.921875 -1.421875 10.953125 3.296875 
Q 6 8.015625 6 15.921875 
Q 6 25.140625 12.171875 29.828125 
Q 18.359375 34.515625 30.609375 34.515625 
L 43.21875 34.515625 
L 43.21875 35.40625 
Q 43.21875 41.609375 39.140625 45 
Q 35.0625 48.390625 27.6875 48.390625 
Q 23 48.390625 18.546875 47.265625 
Q 14.109375 46.140625 10.015625 43.890625 
L 10.015625 52.203125 
Q 14.9375 54.109375 19.578125 55.046875 
Q 24.21875 56 28.609375 56 
Q 40.484375 56 46.34375 49.84375 
Q 52.203125 43.703125 52.203125 31.203125 
z
" id="DejaVuSans-97"/>
     <path d="M 9.421875 75.984375 
L 18.40625 75.984375 
L 18.40625 0 
L 9.421875 0 
z
" id="DejaVuSans-108"/>
     <path d="M 18.109375 8.203125 
L 18.109375 -20.796875 
L 9.078125 -20.796875 
L 9.078125 54.6875 
L 18.109375 54.6875 
L 18.109375 46.390625 
Q 20.953125 51.265625 25.265625 53.625 
Q 29.59375 56 35.59375 56 
Q 45.5625 56 51.78125 48.09375 
Q 58.015625 40.1875 58.015625 27.296875 
Q 58.015625 14.40625 51.78125 6.484375 
Q 45.5625 -1.421875 35.59375 -1.421875 
Q 29.59375 -1.421875 25.265625 0.953125 
Q 20.953125 3.328125 18.109375 8.203125 
z
M 48.6875 27.296875 
Q 48.6875 37.203125 44.609375 42.84375 
Q 40.53125 48.484375 33.40625 48.484375 
Q 26.265625 48.484375 22.1875 42.84375 
Q 18.109375 37.203125 18.109375 27.296875 
Q 18.109375 17.390625 22.1875 11.75 
Q 26.265625 6.109375 33.40625 6.109375 
Q 40.53125 6.109375 44.609375 11.75 
Q 48.6875 17.390625 48.6875 27.296875 
z
" id="DejaVuSans-112"/>
     <path d="M 41.109375 46.296875 
Q 39.59375 47.171875 37.8125 47.578125 
Q 36.03125 48 33.890625 48 
Q 26.265625 48 22.1875 43.046875 
Q 18.109375 38.09375 18.109375 28.8125 
L 18.109375 0 
L 9.078125 0 
L 9.078125 54.6875 
L 18.109375 54.6875 
L 18.109375 46.1875 
Q 20.953125 51.171875 25.484375 53.578125 
Q 30.03125 56 36.53125 56 
Q 37.453125 56 38.578125 55.875 
Q 39.703125 55.765625 41.0625 55.515625 
z
" id="DejaVuSans-114"/>
     <path d="M 9.421875 54.6875 
L 18.40625 54.6875 
L 18.40625 0 
L 9.421875 0 
z
M 9.421875 75.984375 
L 18.40625 75.984375 
L 18.40625 64.59375 
L 9.421875 64.59375 
z
" id="DejaVuSans-105"/>
     <path d="M 48.78125 52.59375 
L 48.78125 44.1875 
Q 44.96875 46.296875 41.140625 47.34375 
Q 37.3125 48.390625 33.40625 48.390625 
Q 24.65625 48.390625 19.8125 42.84375 
Q 14.984375 37.3125 14.984375 27.296875 
Q 14.984375 17.28125 19.8125 11.734375 
Q 24.65625 6.203125 33.40625 6.203125 
Q 37.3125 6.203125 41.140625 7.25 
Q 44.96875 8.296875 48.78125 10.40625 
L 48.78125 2.09375 
Q 45.015625 0.34375 40.984375 -0.53125 
Q 36.96875 -1.421875 32.421875 -1.421875 
Q 20.0625 -1.421875 12.78125 6.34375 
Q 5.515625 14.109375 5.515625 27.296875 
Q 5.515625 40.671875 12.859375 48.328125 
Q 20.21875 56 33.015625 56 
Q 37.15625 56 41.109375 55.140625 
Q 45.0625 54.296875 48.78125 52.59375 
z
" id="DejaVuSans-99"/>
     <path d="M 52 44.1875 
Q 55.375 50.25 60.0625 53.125 
Q 64.75 56 71.09375 56 
Q 79.640625 56 84.28125 50.015625 
Q 88.921875 44.046875 88.921875 33.015625 
L 88.921875 0 
L 79.890625 0 
L 79.890625 32.71875 
Q 79.890625 40.578125 77.09375 44.375 
Q 74.3125 48.1875 68.609375 48.1875 
Q 61.625 48.1875 57.5625 43.546875 
Q 53.515625 38.921875 53.515625 30.90625 
L 53.515625 0 
L 44.484375 0 
L 44.484375 32.71875 
Q 44.484375 40.625 41.703125 44.40625 
Q 38.921875 48.1875 33.109375 48.1875 
Q 26.21875 48.1875 22.15625 43.53125 
Q 18.109375 38.875 18.109375 30.90625 
L 18.109375 0 
L 9.078125 0 
L 9.078125 54.6875 
L 18.109375 54.6875 
L 18.109375 46.1875 
Q 21.1875 51.21875 25.484375 53.609375 
Q 29.78125 56 35.6875 56 
Q 41.65625 56 45.828125 52.96875 
Q 50 49.953125 52 44.1875 
z
" id="DejaVuSans-109"/>
     <path d="M 45.40625 46.390625 
L 45.40625 75.984375 
L 54.390625 75.984375 
L 54.390625 0 
L 45.40625 0 
L 45.40625 8.203125 
Q 42.578125 3.328125 38.25 0.953125 
Q 33.9375 -1.421875 27.875 -1.421875 
Q 17.96875 -1.421875 11.734375 6.484375 
Q 5.515625 14.40625 5.515625 27.296875 
Q 5.515625 40.1875 11.734375 48.09375 
Q 17.96875 56 27.875 56 
Q 33.9375 56 38.25 53.625 
Q 42.578125 51.265625 45.40625 46.390625 
z
M 14.796875 27.296875 
Q 14.796875 17.390625 18.875 11.75 
Q 22.953125 6.109375 30.078125 6.109375 
Q 37.203125 6.109375 41.296875 11.75 
Q 45.40625 17.390625 45.40625 27.296875 
Q 45.40625 37.203125 41.296875 42.84375 
Q 37.203125 48.484375 30.078125 48.484375 
Q 22.953125 48.484375 18.875 42.84375 
Q 14.796875 37.203125 14.796875 27.296875 
z
" id="DejaVuSans-100"/>
     <path d="M 54.890625 33.015625 
L 54.890625 0 
L 45.90625 0 
L 45.90625 32.71875 
Q 45.90625 40.484375 42.875 44.328125 
Q 39.84375 48.1875 33.796875 48.1875 
Q 26.515625 48.1875 22.3125 43.546875 
Q 18.109375 38.921875 18.109375 30.90625 
L 18.109375 0 
L 9.078125 0 
L 9.078125 54.6875 
L 18.109375 54.6875 
L 18.109375 46.1875 
Q 21.34375 51.125 25.703125 53.5625 
Q 30.078125 56 35.796875 56 
Q 45.21875 56 50.046875 50.171875 
Q 54.890625 44.34375 54.890625 33.015625 
z
" id="DejaVuSans-110"/>
     <path d="M 45.40625 27.984375 
Q 45.40625 37.75 41.375 43.109375 
Q 37.359375 48.484375 30.078125 48.484375 
Q 22.859375 48.484375 18.828125 43.109375 
Q 14.796875 37.75 14.796875 27.984375 
Q 14.796875 18.265625 18.828125 12.890625 
Q 22.859375 7.515625 30.078125 7.515625 
Q 37.359375 7.515625 41.375 12.890625 
Q 45.40625 18.265625 45.40625 27.984375 
z
M 54.390625 6.78125 
Q 54.390625 -7.171875 48.1875 -13.984375 
Q 42 -20.796875 29.203125 -20.796875 
Q 24.46875 -20.796875 20.265625 -20.09375 
Q 16.0625 -19.390625 12.109375 -17.921875 
L 12.109375 -9.1875 
Q 16.0625 -11.328125 19.921875 -12.34375 
Q 23.78125 -13.375 27.78125 -13.375 
Q 36.625 -13.375 41.015625 -8.765625 
Q 45.40625 -4.15625 45.40625 5.171875 
L 45.40625 9.625 
Q 42.625 4.78125 38.28125 2.390625 
Q 33.9375 0 27.875 0 
Q 17.828125 0 11.671875 7.65625 
Q 5.515625 15.328125 5.515625 27.984375 
Q 5.515625 40.671875 11.671875 48.328125 
Q 17.828125 56 27.875 56 
Q 33.9375 56 38.28125 53.609375 
Q 42.625 51.21875 45.40625 46.390625 
L 45.40625 54.6875 
L 54.390625 54.6875 
z
" id="DejaVuSans-103"/>
     <path d="M 48.6875 27.296875 
Q 48.6875 37.203125 44.609375 42.84375 
Q 40.53125 48.484375 33.40625 48.484375 
Q 26.265625 48.484375 22.1875 42.84375 
Q 18.109375 37.203125 18.109375 27.296875 
Q 18.109375 17.390625 22.1875 11.75 
Q 26.265625 6.109375 33.40625 6.109375 
Q 40.53125 6.109375 44.609375 11.75 
Q 48.6875 17.390625 48.6875 27.296875 
z
M 18.109375 46.390625 
Q 20.953125 51.265625 25.265625 53.625 
Q 29.59375 56 35.59375 56 
Q 45.5625 56 51.78125 48.09375 
Q 58.015625 40.1875 58.015625 27.296875 
Q 58.015625 14.40625 51.78125 6.484375 
Q 45.5625 -1.421875 35.59375 -1.421875 
Q 29.59375 -1.421875 25.265625 0.953125 
Q 20.953125 3.328125 18.109375 8.203125 
L 18.109375 0 
L 9.078125 0 
L 9.078125 75.984375 
L 18.109375 75.984375 
z
" id="DejaVuSans-98"/>
     <path d="M 32.171875 -5.078125 
Q 28.375 -14.84375 24.75 -17.8125 
Q 21.140625 -20.796875 15.09375 -20.796875 
L 7.90625 -20.796875 
L 7.90625 -13.28125 
L 13.1875 -13.28125 
Q 16.890625 -13.28125 18.9375 -11.515625 
Q 21 -9.765625 23.484375 -3.21875 
L 25.09375 0.875 
L 2.984375 54.6875 
L 12.5 54.6875 
L 29.59375 11.921875 
L 46.6875 54.6875 
L 56.203125 54.6875 
z
" id="DejaVuSans-121"/>
     <path d="M 5.515625 54.6875 
L 48.1875 54.6875 
L 48.1875 46.484375 
L 14.40625 7.171875 
L 48.1875 7.171875 
L 48.1875 0 
L 4.296875 0 
L 4.296875 8.203125 
L 38.09375 47.515625 
L 5.515625 47.515625 
z
" id="DejaVuSans-122"/>
    </defs>
    <g transform="translate(373.534375 9.118125)scale(0.12 -0.12)">
     <use xlink:href="#DejaVuSans-72"/>
     <use x="75.195312" xlink:href="#DejaVuSans-111"/>
     <use x="136.376953" xlink:href="#DejaVuSans-117"/>
     <use x="199.755859" xlink:href="#DejaVuSans-115"/>
     <use x="251.855469" xlink:href="#DejaVuSans-101"/>
     <use x="313.378906" xlink:href="#DejaVuSans-32"/>
     <use x="345.166016" xlink:href="#DejaVuSans-115"/>
     <use x="397.265625" xlink:href="#DejaVuSans-97"/>
     <use x="458.544922" xlink:href="#DejaVuSans-108"/>
     <use x="486.328125" xlink:href="#DejaVuSans-101"/>
     <use x="547.851562" xlink:href="#DejaVuSans-32"/>
     <use x="579.638672" xlink:href="#DejaVuSans-112"/>
     <use x="643.115234" xlink:href="#DejaVuSans-114"/>
     <use x="684.228516" xlink:href="#DejaVuSans-105"/>
     <use x="712.011719" xlink:href="#DejaVuSans-99"/>
     <use x="766.992188" xlink:href="#DejaVuSans-101"/>
     <use x="828.515625" xlink:href="#DejaVuSans-32"/>
     <use x="860.302734" xlink:href="#DejaVuSans-109"/>
     <use x="957.714844" xlink:href="#DejaVuSans-101"/>
     <use x="1019.238281" xlink:href="#DejaVuSans-100"/>
     <use x="1082.714844" xlink:href="#DejaVuSans-105"/>
     <use x="1110.498047" xlink:href="#DejaVuSans-97"/>
     <use x="1171.777344" xlink:href="#DejaVuSans-110"/>
     <use x="1235.15625" xlink:href="#DejaVuSans-115"/>
     <use x="1287.255859" xlink:href="#DejaVuSans-32"/>
     <use x="1319.042969" xlink:href="#DejaVuSans-103"/>
     <use x="1382.519531" xlink:href="#DejaVuSans-114"/>
     <use x="1421.382812" xlink:href="#DejaVuSans-111"/>
     <use x="1482.564453" xlink:href="#DejaVuSans-117"/>
     <use x="1545.943359" xlink:href="#DejaVuSans-112"/>
     <use x="1609.419922" xlink:href="#DejaVuSans-101"/>
     <use x="1670.943359" xlink:href="#DejaVuSans-100"/>
     <use x="1734.419922" xlink:href="#DejaVuSans-32"/>
     <use x="1766.207031" xlink:href="#DejaVuSans-98"/>
     <use x="1829.683594" xlink:href="#DejaVuSans-121"/>
     <use x="1888.863281" xlink:href="#DejaVuSans-32"/>
     <use x="1920.650391" xlink:href="#DejaVuSans-122"/>
     <use x="1973.140625" xlink:href="#DejaVuSans-105"/>
     <use x="2000.923828" xlink:href="#DejaVuSans-112"/>
     <use x="2064.400391" xlink:href="#DejaVuSans-99"/>
     <use x="2119.380859" xlink:href="#DejaVuSans-111"/>
     <use x="2180.5625" xlink:href="#DejaVuSans-100"/>
     <use x="2244.039062" xlink:href="#DejaVuSans-101"/>
    </g>
   </g>
  </g>
 </g>
 <defs>
  <clipPath id="p2f979f99db">
   <rect height="326.16" width="948.6" x="37.571875" y="15.118125"/>
  </clipPath>
 </defs>
</svg>
